<svg width="32" height="32" viewBox="0 0 32 32" fill="none" xmlns="http://www.w3.org/2000/svg">
<rect width="7.21383" height="5.24728" transform="matrix(-0.466314 -0.884619 0.885372 -0.464883 4.31738 26.5976)" fill="#8D60D7"/>
<path d="M27.4319 26.8268L22.3497 23.2783L26.4181 17.4745L31.0255 20.6745L27.4319 26.8268Z" fill="#8D60D7"/>
<rect width="7.22491" height="7.08313" transform="matrix(-0.99956 -0.0296692 0.0297858 -0.999556 19.6068 7.82767)" fill="#8D60D7"/>
<circle cx="16" cy="16" r="15" stroke="#8D60D7" stroke-width="2"/>
<path fill-rule="evenodd" clip-rule="evenodd" d="M15.9999 26.6667C21.9199 26.6667 26.719 21.8489 26.719 15.9059C26.719 9.96288 21.9199 5.14511 15.9999 5.14511C10.08 5.14511 5.28088 9.96288 5.28088 15.9059C5.28088 21.8489 10.08 26.6667 15.9999 26.6667ZM16.047 18.8236C17.3057 18.8236 18.326 17.8193 18.326 16.5804C18.326 15.3416 17.3057 14.3373 16.047 14.3373C14.7884 14.3373 13.7681 15.3416 13.7681 16.5804C13.7681 17.8193 14.7884 18.8236 16.047 18.8236Z" fill="#8D60D7"/>
</svg>
