<svg width="40" height="40" viewBox="0 0 40 40" fill="none" xmlns="http://www.w3.org/2000/svg">
<g clip-path="url(#clip0_86_404)">
<path d="M20.0002 0C8.95583 0 0 9.16907 0 20.4802C0 29.5288 5.73066 37.2057 13.6773 39.9137C14.6769 40.1033 15.0438 39.4695 15.0438 38.9285C15.0438 38.4402 15.0253 36.8269 15.0167 35.1156C9.45262 36.3544 8.27853 32.6992 8.27853 32.6992C7.36874 30.3319 6.05788 29.7025 6.05788 29.7025C4.24326 28.4314 6.19466 28.4575 6.19466 28.4575C8.20302 28.602 9.26053 30.568 9.26053 30.568C11.0443 33.6989 13.9393 32.7938 15.0806 32.2705C15.2601 30.9468 15.7784 30.0433 16.3504 29.5319C11.9081 29.014 7.23825 27.2579 7.23825 19.4105C7.23825 17.1745 8.01954 15.3476 9.29894 13.9133C9.09129 13.3975 8.40671 11.3145 9.49269 8.4935C9.49269 8.4935 11.1722 7.94307 14.9942 10.5928C16.5895 10.139 18.3005 9.91146 20.0002 9.90366C21.6999 9.91146 23.4121 10.139 25.0105 10.5928C28.8278 7.94307 30.505 8.4935 30.505 8.4935C31.5936 11.3145 30.9087 13.3975 30.7011 13.9133C31.9834 15.3476 32.7594 17.1745 32.7594 19.4105C32.7594 27.2766 28.0806 29.0086 23.6271 29.5156C24.3444 30.1512 24.9836 31.3975 24.9836 33.3083C24.9836 36.0485 24.9605 38.254 24.9605 38.9285C24.9605 39.4735 25.3205 40.1121 26.3343 39.911C34.2766 37.1999 40 29.5258 40 20.4802C40 9.16907 31.0455 0 20.0002 0ZM7.49071 29.1744C7.44666 29.2762 7.29034 29.3067 7.14793 29.2368C7.00286 29.17 6.92139 29.0313 6.96842 28.9292C7.01147 28.8244 7.16813 28.7953 7.31286 28.8655C7.45826 28.9323 7.54105 29.0724 7.49071 29.1744ZM8.4745 30.0733C8.37911 30.1639 8.19265 30.1218 8.06614 29.9787C7.93531 29.8359 7.91081 29.645 8.00751 29.5531C8.10588 29.4625 8.28671 29.5049 8.41786 29.6477C8.54869 29.7922 8.57419 29.9818 8.4745 30.0733ZM9.14941 31.2234C9.02687 31.3106 8.8265 31.2288 8.70263 31.0467C8.58009 30.8646 8.58009 30.6462 8.70528 30.5587C8.82948 30.4712 9.02687 30.5499 9.15239 30.7306C9.2746 30.9158 9.2746 31.1342 9.14941 31.2234ZM10.2908 32.5554C10.1812 32.6792 9.94772 32.6459 9.77682 32.477C9.60195 32.3119 9.55327 32.0775 9.66322 31.9538C9.77417 31.8296 10.009 31.8646 10.1812 32.0321C10.3548 32.1969 10.4077 32.433 10.2908 32.5554ZM11.766 33.005C11.7177 33.1655 11.4928 33.2384 11.2662 33.1702C11.04 33.1 10.892 32.9121 10.9377 32.75C10.9847 32.5886 11.2106 32.5126 11.4388 32.5855C11.6647 32.6554 11.813 32.8419 11.766 33.005ZM13.4448 33.1958C13.4505 33.3647 13.2584 33.5047 13.0206 33.5078C12.7815 33.5132 12.588 33.3765 12.5854 33.2104C12.5854 33.0398 12.7732 32.9011 13.0123 32.897C13.2501 32.8923 13.4448 33.0279 13.4448 33.1958ZM15.0941 33.131C15.1226 33.2959 14.9573 33.4651 14.7212 33.5102C14.489 33.5536 14.274 33.4519 14.2446 33.2884C14.2158 33.1195 14.384 32.9503 14.6158 32.9065C14.8523 32.8645 15.0639 32.9635 15.0941 33.131Z" fill="#474747"/>
</g>
<defs>
<clipPath id="clip0_86_404">
<rect width="40" height="40" fill="white"/>
</clipPath>
</defs>
</svg>
