<svg width="47" height="40" viewBox="0 0 47 40" fill="none" xmlns="http://www.w3.org/2000/svg">
<g clip-path="url(#clip0_86_400)">
<path d="M33.8613 33.8022H27.9728V24.5967C27.9728 22.4016 27.9335 19.5757 24.9102 19.5757C21.8432 19.5757 21.374 21.9674 21.374 24.4369V33.8016H15.4855V14.8713H21.1384V17.4584H21.2176C21.7833 16.4928 22.6008 15.6984 23.583 15.1599C24.5652 14.6214 25.6753 14.359 26.7951 14.4005C32.7633 14.4005 33.8637 18.3193 33.8637 23.4174L33.8613 33.8022ZM8.84132 12.2837C8.16547 12.2838 7.50474 12.0839 6.94272 11.7091C6.38071 11.3344 5.94266 10.8017 5.68391 10.1785C5.42516 9.5552 5.35735 8.86933 5.48908 8.2076C5.62081 7.54587 5.94617 6.938 6.42398 6.46085C6.90179 5.9837 7.51062 5.6587 8.17346 5.52696C8.8363 5.39522 9.52338 5.46265 10.1478 5.72072C10.7723 5.9788 11.306 6.41592 11.6816 6.97682C12.0572 7.53772 12.2578 8.19721 12.2579 8.87188C12.258 9.31985 12.1696 9.76344 11.998 10.1773C11.8263 10.5912 11.5747 10.9673 11.2575 11.2841C10.9402 11.601 10.5635 11.8523 10.149 12.0238C9.73439 12.1953 9.29007 12.2836 8.84132 12.2837ZM11.7856 33.8022H5.89094V14.8713H11.7856V33.8022ZM36.7969 0.00251975H2.93199C2.16335 -0.0061392 1.42267 0.290182 0.872782 0.826367C0.322891 1.36255 0.00877046 2.09473 -0.000610352 2.86202V36.8081C0.0084494 37.5757 0.322386 38.3084 0.872257 38.8452C1.42213 39.3819 2.16297 39.6788 2.93199 39.6706H36.7969C37.5675 39.6803 38.3104 39.3842 38.8624 38.8475C39.4145 38.3108 39.7305 37.5773 39.7412 36.8081V2.85958C39.7302 2.09076 39.4139 1.35775 38.8619 0.821577C38.3098 0.285404 37.5671 -0.0100702 36.7969 6.95029e-05" fill="#474747"/>
</g>
<defs>
<clipPath id="clip0_86_400">
<rect width="47" height="40" fill="white"/>
</clipPath>
</defs>
</svg>
