<svg width="35" height="36" viewBox="0 0 35 36" fill="none" xmlns="http://www.w3.org/2000/svg">
<rect x="4.72217" y="29.1482" width="7.90226" height="5.74165" transform="rotate(-117.749 4.72217 29.1482)" fill="#F0F0F0"/>
<path d="M30.0037 29.3995L24.445 25.5106L28.8948 19.1503L33.9342 22.6572L30.0037 29.3995Z" fill="#F0F0F0"/>
<rect x="21.4449" y="8.57834" width="7.90226" height="7.76238" transform="rotate(-178.296 21.4449 8.57834)" fill="#F0F0F0"/>
<path d="M34 17.5344C34 26.6679 26.6108 34.0688 17.5 34.0688C8.38915 34.0688 1 26.6679 1 17.5344C1 8.40084 8.38915 1 17.5 1C26.6108 1 34 8.40084 34 17.5344Z" stroke="#F0F0F0" stroke-width="2"/>
<path fill-rule="evenodd" clip-rule="evenodd" d="M17.5 29.224C23.9749 29.224 29.2239 23.9442 29.2239 17.4312C29.2239 10.9183 23.9749 5.63852 17.5 5.63852C11.025 5.63852 5.776 10.9183 5.776 17.4312C5.776 23.9442 11.025 29.224 17.5 29.224ZM17.5515 20.6287C18.9282 20.6287 20.0442 19.5281 20.0442 18.1705C20.0442 16.8128 18.9282 15.7122 17.5515 15.7122C16.1749 15.7122 15.0589 16.8128 15.0589 18.1705C15.0589 19.5281 16.1749 20.6287 17.5515 20.6287Z" fill="#F0F0F0"/>
</svg>
