<svg width="40" height="40" viewBox="0 0 40 40" fill="none" xmlns="http://www.w3.org/2000/svg">
<g clip-path="url(#clip0_86_395)">
<path d="M35 40H5C2.24 40 0 37.76 0 35V5C0 2.24 2.24 0 5 0H35C37.76 0 40 2.24 40 5V35C40 37.76 37.76 40 35 40Z" fill="#474747"/>
<path d="M15.36 30.16C24.79 30.16 29.95 22.34 29.95 15.57C29.95 15.35 29.95 15.13 29.94 14.91C30.94 14.19 31.81 13.28 32.5 12.25C31.58 12.66 30.59 12.93 29.55 13.06C30.61 12.43 31.42 11.42 31.81 10.22C30.82 10.81 29.72 11.23 28.55 11.46C27.61 10.46 26.28 9.84003 24.81 9.84003C21.98 9.84003 19.68 12.14 19.68 14.97C19.68 15.37 19.73 15.76 19.81 16.14C15.55 15.93 11.77 13.88 9.24001 10.78C8.80001 11.54 8.55001 12.42 8.55001 13.36C8.55001 15.14 9.46001 16.71 10.83 17.63C9.99001 17.6 9.20001 17.37 8.51001 16.99C8.51001 17.01 8.51001 17.03 8.51001 17.06C8.51001 19.54 10.28 21.62 12.62 22.09C12.19 22.21 11.74 22.27 11.27 22.27C10.94 22.27 10.62 22.24 10.31 22.18C10.96 24.22 12.86 25.7 15.1 25.74C13.34 27.12 11.13 27.94 8.73001 27.94C8.32001 27.94 7.91001 27.92 7.51001 27.87C9.77001 29.31 12.47 30.16 15.36 30.16Z" fill="#191919"/>
</g>
<defs>
<clipPath id="clip0_86_395">
<rect width="40" height="40" fill="white"/>
</clipPath>
</defs>
</svg>
